<svg width="240" height="241" viewBox="0 0 240 241" fill="none" xmlns="http://www.w3.org/2000/svg">
<path fill-rule="evenodd" clip-rule="evenodd" d="M95.0258 9.25008C82.6718 14.2951 72.6138 18.8721 72.6758 19.4221C72.7368 19.9721 81.2698 23.8391 91.6378 28.0141C102.005 32.1901 128.324 42.8241 150.123 51.6451L189.758 67.6831L211.623 58.8241C240.984 46.9271 238.824 47.9691 236.644 46.7491C231.713 43.9901 121.398 -0.0669237 119.588 7.63394e-05C118.433 0.0430763 107.38 4.20608 95.0258 9.25008ZM31.4878 34.9831C3.78185 46.2821 1.82784 47.1631 2.67684 47.9791C3.12284 48.4091 29.7008 59.3821 61.7398 72.3651L119.992 95.9711L143.74 86.3421C156.801 81.0471 167.675 76.5361 167.905 76.3181C168.134 76.1001 168.098 75.6981 167.824 75.4251C166.77 74.3701 51.4058 27.9281 49.9878 27.9871C49.1628 28.0221 40.8378 31.1701 31.4878 34.9831ZM0.000844505 129.605L0.013845 195.422L53.8998 217.239C83.5368 229.238 108.734 239.304 109.894 239.608L112.002 240.159L111.745 174.456L111.488 108.754L57.4878 86.8501C27.7878 74.8031 2.69984 64.6861 1.73784 64.3671C0.082844 63.8191 -0.0111555 67.3641 0.000844505 129.605ZM183.488 86.3991L128.488 108.752L128.231 174.455L127.974 240.159L130.082 239.608C131.242 239.304 156.439 229.238 186.076 217.239L239.962 195.422L239.975 129.672C239.982 93.5091 239.651 63.9501 239.238 63.9841C238.825 64.0191 213.738 74.1051 183.488 86.3991ZM26.1238 93.1631L31.7598 95.3231L54.9358 151.227C67.6838 181.974 77.9718 207.263 77.7998 207.426C77.6288 207.588 63.9878 202.232 47.4878 195.523L17.4878 183.325L17.2278 136.513C16.9818 92.1871 17.0618 89.7351 18.7278 90.3511C19.6958 90.7091 23.0238 91.9741 26.1238 93.1631Z" fill="#33cc99"/>
</svg>
