<svg width="258" height="228" viewBox="0 0 258 228" fill="blue" xmlns="http://www.w3.org/2000/svg">
<path fill-rule="evenodd" clip-rule="evenodd" d="M46 81.5V163H129H212V81.5V0H129H46V81.5ZM188 81.5V140H129H70V81.5V23H129H188V81.5ZM86 47.777V56.554L92.775 63.277C96.501 66.975 99.979 70 100.504 70C101.029 70 105.18 66.298 109.728 61.773L117.999 53.546L110.774 46.273L103.55 39H94.775H86V47.777ZM120.208 72.785L85.915 106.5L85.958 115.25L86 124H94.586H103.172L137.586 90.307L172 56.615V47.807V39L163.25 39.035L154.5 39.069L120.208 72.785ZM148.613 100.656L139.726 109.177L147.088 116.588L154.45 124H163.225H172V115.225V106.45L164.75 99.293L157.5 92.136L148.613 100.656ZM0 187.5V196H3.5H7V203.5V211H3.5H0V219.5V228H129H258V219.5V211H254.5H251V203.5V196H254.5H258V187.5V179H129H0V187.5Z" fill="#33cc99"/>
</svg>
