<svg width="330" height="218" viewBox="0 0 330 218" fill="none" xmlns="http://www.w3.org/2000/svg">
<path fill-rule="evenodd" clip-rule="evenodd" d="M78.5 47V94L48.25 94.006C30.528 94.009 16.46 94.439 14.281 95.044C12.236 95.612 9.182 97.238 7.495 98.658C1.979 103.299 1.177 106.081 0.693 122.25C0.451 130.362 0.581 137 0.982 137C1.384 137 3.4 135.663 5.462 134.03C11.378 129.344 22.956 124.273 30.727 122.962C52.866 119.228 75.295 129.739 87.845 149.731C95.689 162.227 97.774 180.372 93 194.595C91.625 198.691 90.5 202.258 90.5 202.521C90.5 202.784 104.45 203 121.5 203C138.55 203 152.5 202.662 152.499 202.25C152.499 201.838 151.544 199.025 150.376 196C147.718 189.115 146.779 174.786 148.457 166.706C151.292 153.051 161.174 139.045 173.674 130.966C179.833 126.985 190.554 123 195.105 123C197.375 123 197.5 122.676 197.5 116.77C197.5 111.734 194.484 99.957 181.75 55.277L166 0.0130005L122.25 0.00699997L78.5 0V47ZM239.5 67.804V135.608L243.131 139.054C248.373 144.028 254.026 153.102 256.684 160.81C260.067 170.616 259.89 186.726 256.296 196.25L253.748 203H276.373H298.998L314.249 197.917L329.5 192.834V189.417V186H300H270.5V137.5V89H266.5H262.5V44.5V0H251H239.5V67.804ZM37.5 14.856C37.5 16.448 37.219 19.156 36.875 20.875C36.39 23.301 36.597 24 37.802 24C38.656 24 40.288 25.186 41.427 26.635C43.225 28.92 43.5 30.662 43.5 39.749V50.228L39.25 53.998L35 57.768L34.659 68.384L34.318 79H48.909H63.5V71.625C63.5 60.95 62.693 58.185 58.345 53.965L54.5 50.234V37.455C54.5 25.675 54.307 24.347 52.034 20.468C49.624 16.356 46.034 13.96 40.25 12.606C37.735 12.017 37.5 12.209 37.5 14.856ZM152.5 17.25C152.5 17.568 178.053 107.016 178.961 109.877C179.621 111.957 179.401 112 168.196 112H156.757L150.879 103.016L145 94.031L120.75 94.016L96.5 94V55.5V17H124.5C139.9 17 152.5 17.113 152.5 17.25ZM33.027 138.19C20.717 139.826 8.107 149.199 2.703 160.732C0.257 165.952 0 167.592 0 178C0 188.408 0.257 190.048 2.703 195.268C6.153 202.63 14.318 210.792 22 214.558C27.584 217.296 28.798 217.5 39.516 217.5C50.499 217.5 51.339 217.349 57.675 214.232C66.158 210.059 74.428 201.366 77.603 193.285C79.401 188.708 79.875 185.516 79.875 178C79.875 165.968 77.477 159.324 70.296 151.467C60.218 140.44 48.231 136.17 33.027 138.19ZM197.417 138.035C180.531 140.05 166.178 154.154 163.175 171.685C160.213 188.978 169.944 207.164 186.247 214.804C191.452 217.243 193.098 217.5 203.524 217.5C214.498 217.5 215.361 217.346 221.629 214.259C245.736 202.386 251.545 169.93 233.094 150.204C224.18 140.674 211.51 136.353 197.417 138.035ZM46.642 156.161C51.817 157.711 58.346 163.451 60.614 168.444C63.007 173.714 63.007 182.286 60.614 187.556C58.232 192.8 51.608 198.43 45.958 200.012C29.891 204.51 14.225 190.423 17.004 173.975C18.069 167.674 23.155 161.013 29.364 157.787C35.21 154.75 40.326 154.268 46.642 156.161ZM215.146 158.585C218.088 160.404 221.119 163.448 222.974 166.448C225.549 170.613 226 172.336 226 178C226 183.664 225.549 185.387 222.974 189.552C216.791 199.552 205.079 203.456 194.68 198.982C185.775 195.151 180.5 187.346 180.5 178C180.5 160.221 200.062 149.259 215.146 158.585ZM32.423 170.923C26.254 177.092 30.376 188 38.876 188C45.804 188 49.833 184.322 49.833 178C49.833 168.814 38.954 164.392 32.423 170.923ZM196.577 170.589C193.924 172.821 193.5 173.843 193.5 178C193.5 182.157 193.924 183.179 196.577 185.411C203.521 191.254 213.5 186.884 213.5 178C213.5 169.116 203.521 164.746 196.577 170.589Z" fill="#33cc99"/>
</svg>
