<svg width="328" height="233" viewBox="0 0 328 233" fill="none" xmlns="http://www.w3.org/2000/svg">
<path fill-rule="evenodd" clip-rule="evenodd" d="M158 12.5L145.53 25H72.765H0V58.299V91.599L44.25 105.843C68.588 113.678 97.595 123.002 108.711 126.563L128.922 133.039L150.676 132.77L172.431 132.5L183.552 80.471C189.668 51.854 194.98 27.217 195.355 25.721L196.038 23H215.019H234V11.5V0H202.235H170.47L158 12.5ZM213.68 39.653C213.306 40.027 213 57.358 213 78.167V116H234.595H256.19L275.095 134.672L294 153.345V170.672V188H311H328V134.5V81H304.52H281.041L280.77 60.25L280.5 39.5L247.43 39.237C229.241 39.092 214.054 39.279 213.68 39.653ZM48 56.972C48 57.951 44.806 73.291 44.508 73.743C44.42 73.877 41.232 72.936 37.424 71.654L30.5 69.322L30.204 62.661L29.909 56H38.954C44.142 56 48 56.414 48 56.972ZM84.014 56.75C84.037 57.961 78.7 83.459 78.326 83.924C77.805 84.573 62.67 79.797 61.247 78.534C60.249 77.649 60.45 75.244 62.235 66.711L64.476 56H74.238C79.607 56 84.006 56.338 84.014 56.75ZM120.979 57.25C120.951 58.891 113.176 95.183 112.794 95.455C112.632 95.57 108.414 94.356 103.42 92.758L94.339 89.852L97.627 74.176C99.435 65.554 100.934 57.938 100.957 57.25C100.989 56.336 103.689 56 111 56C118.345 56 120.994 56.332 120.979 57.25ZM157.007 57.25C157.011 57.938 154.881 68.512 152.273 80.75L147.532 103L141.516 102.994C133.266 102.987 127.756 101.389 128.391 99.19C128.659 98.26 130.729 88.725 132.99 78C135.251 67.275 137.289 57.938 137.519 57.25C137.815 56.367 140.733 56 147.469 56C154.423 56 157.002 56.338 157.007 57.25ZM263.782 68.75L263.5 80.5H247.5H231.5L231.218 68.75L230.937 57H247.5H264.063L263.782 68.75ZM53.411 132.417C27.881 138.251 11.084 162.6 14.802 188.384C17.556 207.477 30.496 223.131 48.893 229.626C61.992 234.249 79.759 232.295 91.5 224.939C114.328 210.637 122.618 182.148 110.796 158.624C107.466 151.996 100.592 144.194 94.217 139.806C84.078 132.828 65.967 129.548 53.411 132.417ZM214.782 132.486C188.211 139.24 172.035 164.341 176.999 191.114C178.091 197.005 183.822 209.511 187.911 214.93C191.525 219.717 204.006 227.612 211.732 229.999C220.465 232.696 233.513 232.703 242.217 230.015C262.959 223.608 277.89 203.721 277.976 182.386C278.067 159.581 265.14 141.517 243.277 133.898C235.653 131.24 222.287 130.578 214.782 132.486ZM126.001 155.341C129.805 163.731 132.403 177.717 131.554 185.228L130.901 191H145.95H161V181.71C161 171.651 162.681 163.594 166.547 155.129C167.896 152.175 169 149.588 169 149.379C169 149.171 158.678 149 146.063 149H123.125L126.001 155.341ZM77.013 168.901C85.97 177.43 84.118 191.86 73.401 197.048C57.175 204.903 40.257 187.511 49.932 172.921C56.792 162.578 68.541 160.834 77.013 168.901ZM237.179 167.131C247.472 174.447 246.504 191.673 235.5 197C228.285 200.493 220.167 199.397 214.661 194.186C208.145 188.022 207.204 180.61 211.918 172.601C217.206 163.618 228.727 161.124 237.179 167.131Z" fill="#33cc99"/>
</svg>
