<svg width="293" height="293" viewBox="0 0 293 293" fill="none" xmlns="http://www.w3.org/2000/svg">
<path fill-rule="evenodd" clip-rule="evenodd" d="M256.275 1.96266C246.103 4.61865 236.996 8.18166 225.777 13.8937C208.743 22.5667 197.503 30.7657 179.987 47.2997C164.886 61.5527 159.864 67.3257 122.695 113.159C100.287 140.789 81.9136 163.456 81.8636 163.531C81.8146 163.606 66.4746 162.651 47.7746 161.409L13.7746 159.15L6.53765 166.235C2.55665 170.132 -0.368354 173.633 0.0376458 174.015C0.442646 174.397 14.0166 180.819 30.2016 188.285C56.5536 200.441 65.2746 205.383 65.2746 208.159C65.2746 208.649 62.7246 213.322 59.6086 218.544L53.9426 228.039L58.9886 233.085L64.0336 238.131L73.4476 232.513C78.6256 229.423 83.3206 226.895 83.8806 226.895C86.7396 226.895 91.3436 235.005 103.745 261.882C111.227 278.1 117.687 291.707 118.1 292.12C118.514 292.534 121.967 289.732 125.776 285.894L132.7 278.917L130.596 244.656C129.44 225.812 128.557 210.347 128.634 210.289C128.712 210.231 151.05 192.174 178.275 170.163C219.878 136.526 230.255 127.609 243.32 114.268C254.549 102.803 260.887 95.3637 266.144 87.4807C284.76 59.5677 294.98 30.1257 291.848 13.4317C291.032 9.08366 285.974 3.08466 281.573 1.24566C276.986 -0.670345 265.068 -0.333345 256.275 1.96266ZM28.2866 21.3827C21.0526 28.6367 17.1966 33.2037 17.8076 33.7917C19.8596 35.7687 110.407 98.8947 111.189 98.8947C111.645 98.8947 119.566 89.5577 128.793 78.1447C138.02 66.7327 148.268 54.6167 151.567 51.2207L157.566 45.0477L149.17 42.5127C142.545 40.5127 47.5056 12.1897 41.2536 10.3517C40.3026 10.0727 35.4376 14.2107 28.2866 21.3827ZM236.823 36.8097C244.026 40.9407 250.702 47.4627 254.764 54.3357C256.695 57.6037 258.275 60.7727 258.275 61.3777C258.275 61.9827 255.995 66.1837 253.208 70.7117L248.141 78.9457L243.327 71.6707C237.557 62.9477 228.065 53.5427 219.532 48.0917C215.846 45.7377 213.797 43.8657 214.532 43.5227C215.215 43.2027 218.925 40.9317 222.775 38.4757C226.625 36.0187 230.225 33.9877 230.775 33.9617C231.325 33.9347 234.047 35.2167 236.823 36.8097ZM241.244 140.448C238.786 142.964 226.971 152.957 214.989 162.654C203.007 172.351 193.332 180.816 193.489 181.464C193.646 182.112 208.4 203.607 226.275 229.231L258.775 275.82L270.472 264.108L282.17 252.395L264.938 194.467C255.461 162.607 247.258 136.389 246.71 136.207C246.161 136.024 243.701 137.932 241.244 140.448Z" fill="#33cc99"/>
</svg>
