<svg width="341" height="221" viewBox="0 0 341 221" fill="none" xmlns="http://www.w3.org/2000/svg">
<path fill-rule="evenodd" clip-rule="evenodd" d="M127 23.5V47H165H203V23.5V0H165H127V23.5ZM220 23.5V47H258H296V23.5V0H258H220V23.5ZM33.496 80.166C25.248 95.658 18.35 108.708 18.167 109.166C17.983 109.625 36.546 110 59.417 110H101V81V52H74.746H48.492L33.496 80.166ZM127 86.5V110H165H203V86.5V63H165H127V86.5ZM220 86.5V110H258H296V86.5V63H258H220V86.5ZM82 80.5V91H65.418H48.837L50.787 87.75C51.859 85.963 54.427 81.237 56.492 77.25L60.248 70H71.124H82V80.5ZM0 144.5V163H2.388C6.903 163 22.412 168.113 30.451 172.251C48.722 181.658 62 200.932 62 218.049V221H169.84H277.681L285.921 216.047C317.908 196.823 337.818 167.098 339.704 135.75L340.291 126H170.145H0V144.5ZM317.358 152.25C315.928 156.238 312.939 162.629 310.716 166.454C305.26 175.839 291.549 189.836 280.706 197.089L271.869 203L217.684 202.921C187.883 202.878 164.064 202.615 164.753 202.337C166.322 201.704 319.416 145.109 319.729 145.046C319.854 145.021 318.787 148.262 317.358 152.25Z" fill="#33cc99"/>
</svg>
